<svg width="415" height="403" viewBox="0 0 415 403" fill="none" xmlns="http://www.w3.org/2000/svg">
<path d="M29.4235 208.021C48.2433 208.021 66.9125 211.283 85.7323 210.078C92.2518 209.823 98.6598 208.306 104.602 205.612C120.662 197.983 136.42 190.104 149.017 176.905C157.4 168.271 166.335 160.191 175.766 152.716C180.383 149.002 187.51 143.481 192.177 149.654C196.393 155.074 189.116 160.043 185.251 164.459C165.98 186.591 147.009 209.024 138.528 237.931C134.563 251.431 135.015 265.684 133.81 279.636C130.749 315.118 130.047 350.8 122.067 385.679C121.213 389.588 119.934 393.391 118.253 397.021C116.848 400.083 114.991 403.094 111.076 402.542C107.162 401.99 107.011 398.075 106.861 394.913C106.309 380.61 105.857 366.358 105.255 352.055C104.652 337.752 104 321.943 103.347 306.887C103.347 306.134 103.347 305.382 103.347 304.629C102.745 299.61 103.598 292.634 97.2248 291.48C90.8511 290.326 89.7972 297.201 87.84 301.517C81.0147 316.272 75.1931 331.629 67.1131 345.731C65.9299 347.929 64.5704 350.027 63.0481 352.004C61.4923 353.911 59.6856 356.17 56.825 355.266C55.5306 354.749 54.4344 353.833 53.6947 352.651C52.955 351.469 52.61 350.083 52.7097 348.692C52.2393 340.187 53.3977 331.67 56.1225 323.599C63.801 299.259 72.0816 275.069 78.6058 250.378C79.2338 248.998 79.5258 247.489 79.4576 245.975C79.3895 244.461 78.9632 242.984 78.2138 241.667C77.4645 240.349 76.4134 239.228 75.1467 238.396C73.8801 237.563 72.434 237.043 70.9273 236.878C54.5165 232.411 38.1056 227.894 21.6445 223.478C15.7953 222.136 10.0831 220.254 4.58131 217.857C2.07201 216.602 -0.437266 215.448 0.0645948 211.835C0.566456 208.221 3.67799 207.97 6.33785 207.368C8.00414 207.158 9.69018 207.158 11.3565 207.368L29.4235 208.021Z" fill="white"/>
<path d="M293.002 389.043C291.045 377.701 288.937 366.409 287.231 355.067C283.718 331.228 283.567 307.089 280.957 283.15C279.101 266.087 280.957 248.421 274.182 232.011C268.708 217.51 260.985 203.961 251.297 191.862C242.314 181.122 234.535 169.378 224.95 159.09C222.591 156.631 218.978 153.018 222.29 149.053C225.602 145.088 229.818 147.447 233.431 149.053C237.735 151.105 241.683 153.833 245.125 157.133C253.807 165.464 261.987 174.447 271.322 181.975C292.5 198.988 315.184 212.438 344.142 209.979C362.108 208.423 380.175 207.921 398.192 206.968C400.651 206.968 403.211 206.968 405.67 206.968C409.283 206.968 413.198 207.319 414.603 211.083C416.51 216.102 411.04 216.102 408.932 218.561L387.904 224.784C372.848 228.096 357.792 232.312 343.088 236.828C341.658 237.041 340.296 237.582 339.111 238.411C337.926 239.239 336.95 240.331 336.259 241.601C335.568 242.871 335.181 244.284 335.13 245.729C335.078 247.174 335.363 248.611 335.961 249.927C342.385 274.117 350.515 297.754 357.893 321.593C360.582 329.403 362.071 337.576 362.309 345.833C362.309 349.697 362.309 353.963 357.642 354.966C352.974 355.97 351.72 352.006 349.813 349.195C347.906 346.385 346.45 343.624 344.794 340.864C344.791 340.224 344.634 339.594 344.337 339.026C344.04 338.459 343.612 337.97 343.088 337.602C338.571 327.314 334.104 316.976 329.538 306.738C327.731 302.622 325.874 298.557 323.816 294.542C323.325 293.372 322.468 292.392 321.373 291.75C320.279 291.107 319.005 290.837 317.744 290.979C316.484 291.176 315.319 291.769 314.417 292.671C313.515 293.573 312.922 294.738 312.725 295.998C312.003 297.875 311.498 299.828 311.22 301.819C310.216 324.303 309.279 346.803 308.409 369.32V376.898L307.707 381.364C301.835 383.021 299.677 389.344 294.508 391.954L293.002 389.043Z" fill="white"/>
<circle cx="95.7703" cy="169.028" r="25.093" fill="#FAFAFC"/>
<circle cx="316.589" cy="169.028" r="25.093" fill="#FAFAFC"/>
<path d="M158.503 43.963C153.331 47.8128 149.263 52.956 146.709 58.8759C144.154 64.7958 143.202 71.2838 143.949 77.688C127.94 54.502 137.525 20.3756 164.526 2.65991C182.342 24.792 182.994 54.6526 164.977 80.9501C167.492 68.2449 165.184 55.0585 158.503 43.963Z" fill="#FFF1A1"/>
<path d="M220.031 0C231.222 13.2993 240.758 26.3979 240.657 44.2642C240.4 51.5538 237.854 58.5773 233.38 64.3386C230.018 69.3572 226.505 69.3573 222.088 65.8443C218.224 62.8434 215.043 59.0531 212.758 54.7262C210.474 50.3993 209.138 45.6351 208.839 40.7512C207.455 26.2555 211.437 11.7554 220.031 0Z" fill="#C0FACF"/>
<path d="M279.753 74.376C269.715 69.3574 265.5 59.5711 263.442 49.283C261.461 37.3044 263.602 25.0081 269.515 14.4038C270.87 11.6937 272.074 11.0413 275.135 12.6974C293.403 22.7347 304.946 50.638 298.522 71.114C296.686 62.0311 291.799 53.8495 284.671 47.928C281.559 45.1678 280.556 45.8704 279.1 49.4838C276.388 57.6553 276.547 66.5082 279.552 74.5768L279.753 74.376Z" fill="#FFF1A1"/>
<path d="M83.4745 118.238C79.5662 110.457 73.4353 104.011 65.8591 99.7191C61.7439 97.5611 60.5395 98.916 60.1882 102.881C59.7551 107.876 60.5296 112.902 62.4465 117.535C63.3499 119.743 65.4577 121.701 64.3536 124.511C55.3382 119.445 48.389 111.373 44.7198 101.705C41.0506 92.0366 40.8946 81.3865 44.2792 71.6149C45.6844 67.5498 47.3908 68.403 50.3016 69.4067C69.6232 76.232 82.0693 94.1987 83.4745 118.238Z" fill="#72E881"/>
<path d="M117.301 66.6974C117.294 73.2629 115.026 79.6256 110.877 84.7142C110.413 85.5918 109.744 86.3447 108.928 86.9089C108.111 87.4731 107.17 87.832 106.185 87.9551C105.2 88.0782 104.2 87.9619 103.269 87.6161C102.339 87.2704 101.505 86.7053 100.84 85.9688C94.3722 80.6822 90.2148 73.0872 89.2467 64.7903C88.0306 53.2689 90.6788 41.6702 96.7746 31.8181C98.1296 29.1583 99.6854 28.6062 101.793 31.1657C110.124 41.6044 117.25 52.5951 117.301 66.6974Z" fill="#C0FACF"/>
<path d="M348.959 59.7719C354.328 58.0154 352.572 63.7869 354.78 65.3929C354.432 67.9879 354.924 70.6263 356.185 72.9208C356.185 78.6922 356.737 84.4635 356.185 90.1847C355.89 95.1186 354.355 99.8986 351.724 104.083C349.092 108.267 345.449 111.72 341.13 114.124C334.756 117.887 332.096 117.135 329.185 110.058C326.903 104.461 326.119 98.3644 326.911 92.3711C327.703 86.3779 330.044 80.6946 333.702 75.8818C337.312 71.11 341.235 66.5833 345.446 62.3315L348.959 59.7719Z" fill="#72E881"/>
<path d="M152.229 127.523C151.426 118.339 156.696 111.915 162.869 106.495C170.567 99.9442 180.417 96.476 190.521 96.759C193.282 96.759 195.138 96.7589 194.938 100.724C194.046 109.559 190.543 117.929 184.877 124.767C179.21 131.604 171.636 136.599 163.12 139.116C167.502 133.945 170.781 127.934 172.755 121.45C173.558 117.988 173.107 116.432 168.891 117.084C162.173 118.289 156.173 122.025 152.129 127.523H152.229Z" fill="#C0FACF"/>
<path d="M360.904 167.823C361.957 154.222 374.052 142.73 390.513 139.267C404.013 136.557 405.92 138.464 401.554 151.563C399.643 158.342 396.03 164.52 391.058 169.509C386.086 174.498 379.921 178.133 373.149 180.068L372.798 179.767C376.309 175.241 379.024 170.149 380.827 164.711C381.229 162.854 382.935 160.797 381.129 159.191C379.322 157.585 377.365 158.94 375.457 159.191C369.586 160.245 365.671 164.711 360.803 167.572L360.904 167.823Z" fill="#00CCFF"/>
<path d="M49.8002 159.492C50.6534 165.264 46.3374 165.766 42.172 165.414C36.5134 164.897 31.1166 162.79 26.6052 159.335C22.0938 155.88 18.652 151.22 16.6773 145.892C14.6699 141.676 10.8557 135.855 13.365 132.743C16.577 129.029 22.6997 132.743 27.3168 134.148C41.8205 138.816 49.9006 147.95 49.8002 159.492Z" fill="#00CCFF"/>
<path d="M291.998 141.475C276.591 126.419 281.107 108.201 288.334 96.8593C290.593 93.2961 292.349 95.5544 294.156 97.1604C306.803 108.402 310.215 122.253 306.15 139.668C304.799 133.737 302.141 128.182 298.371 123.408C295.511 120.146 293.704 120.397 292.198 124.462C290.328 129.968 290.258 135.926 291.998 141.475Z" fill="#C0FACF"/>
<path d="M254.057 113.571C254.057 120.848 251.698 122.655 244.823 120.396C239.452 117.918 234.946 113.887 231.887 108.824C228.828 103.762 227.355 97.8986 227.659 91.9911C227.659 90.2346 228.362 89.3813 230.419 89.4315C240.206 89.6323 253.856 103.484 254.057 113.571Z" fill="#FA5E48"/>
<path d="M349.361 145.238C345.497 145.69 343.138 144.184 343.389 139.417C344.041 128.275 360.552 114.976 371.593 116.833C372.948 117.084 373.751 117.385 373.902 119.041C374.805 129.53 360.552 145.087 349.361 145.238Z" fill="#FA5E48"/>
<path d="M232.126 261.922C232.126 273.063 232.126 273.063 218.224 273.063C209.04 273.063 209.04 273.063 209.09 259.513C209.09 250.128 209.09 250.128 223.293 250.128C232.126 250.128 232.126 250.128 232.126 261.922Z" fill="#72E881"/>
<path d="M113.083 102.379C120.411 111.413 126.483 119.643 124.827 130.935C124.124 135.954 122.669 141.474 117.6 142.026C112.531 142.578 110.072 137.509 108.416 133.294C104.15 122.554 106.91 112.768 113.083 102.379Z" fill="#E9E9E9"/>
<path d="M231.975 287.516C231.975 298.758 231.975 298.758 218.927 298.758C208.89 298.758 208.89 298.758 208.89 285.057C208.89 275.973 208.89 275.873 222.641 276.023C233.381 276.124 231.825 274.267 231.975 287.516Z" fill="#FFF1A1"/>
<path d="M206.179 287.516C206.179 298.758 206.179 298.758 193.131 298.758C183.094 298.758 183.094 298.758 183.094 285.007C183.094 275.923 183.094 275.924 196.895 275.974C206.179 275.974 206.179 275.974 206.179 287.516Z" fill="#FA5E48"/>
<path d="M206.179 262.073C206.179 273.064 206.179 273.064 192.83 273.064C183.345 273.064 183.345 273.064 183.345 259.815C183.345 250.179 183.345 250.129 196.594 250.229C207.785 250.329 205.828 248.723 206.179 262.073Z" fill="#00CCFF"/>
<path d="M0.0649414 183.229C7.44229 179.566 14.2677 177.508 21.1432 182.476C25.1079 185.287 24.9572 187.947 20.2899 190.105C13.9665 193.066 7.44229 191.058 0.0649414 183.229Z" fill="#FA5E48"/>
<path d="M294.307 393.61L294.608 392.104C299.626 389.494 301.935 383.171 307.807 381.515C307.807 385.68 308.058 389.896 307.807 394.111C307.807 397.524 308.208 401.589 303.742 402.593C299.275 403.596 298.171 400.134 296.364 397.574C295.712 396.219 295.059 394.914 294.307 393.61Z" fill="white"/>
<path d="M414.502 189.402C411.811 191.949 408.503 193.752 404.904 194.632C401.305 195.512 397.538 195.439 393.976 194.421C390.312 192.765 390.563 191.008 393.173 188.599C397.79 184.484 406.071 184.584 414.502 189.402Z" fill="#FA5E48"/>
</svg>
