<svg width="221" height="75" viewBox="0 0 221 75" fill="none" xmlns="http://www.w3.org/2000/svg">
<path d="M105.196 45.627C105.97 45.627 106.685 45.5273 107.341 45.3281C107.997 45.1172 108.56 44.8242 109.028 44.4492C109.497 44.0625 109.86 43.6055 110.118 43.0781C110.388 42.5508 110.522 41.9648 110.522 41.3203C110.522 40.5586 110.341 39.9141 109.978 39.3867C109.626 38.8594 109.157 38.3965 108.571 37.998C107.997 37.5996 107.335 37.248 106.585 36.9434C105.835 36.627 105.073 36.3105 104.3 35.9941C103.526 35.666 102.765 35.3145 102.015 34.9395C101.265 34.5645 100.597 34.1074 100.011 33.5684C99.4365 33.0293 98.9678 32.3965 98.6045 31.6699C98.2529 30.9316 98.0771 30.041 98.0771 28.998C98.0771 27.8965 98.2881 26.9062 98.71 26.0273C99.1318 25.1484 99.7178 24.4043 100.468 23.7949C101.229 23.1738 102.126 22.7051 103.157 22.3887C104.2 22.0605 105.343 21.8965 106.585 21.8965C107.347 21.8965 108.302 21.9727 109.45 22.125C110.599 22.2656 111.817 22.5293 113.106 22.916L112.526 25.9746L112.175 26.1504C111.53 25.8574 110.903 25.6113 110.294 25.4121C109.685 25.2129 109.11 25.0547 108.571 24.9375C108.032 24.8203 107.534 24.7383 107.077 24.6914C106.62 24.6445 106.222 24.6211 105.882 24.6211C105.19 24.6211 104.563 24.709 104.001 24.8848C103.45 25.0488 102.976 25.2949 102.577 25.623C102.19 25.9395 101.886 26.332 101.663 26.8008C101.452 27.2578 101.347 27.7793 101.347 28.3652C101.347 29.1504 101.522 29.8184 101.874 30.3691C102.237 30.9199 102.712 31.4062 103.298 31.8281C103.896 32.25 104.569 32.625 105.319 32.9531C106.069 33.2812 106.831 33.6094 107.604 33.9375C108.39 34.2656 109.157 34.6172 109.907 34.9922C110.657 35.3672 111.325 35.8066 111.911 36.3105C112.509 36.8027 112.983 37.3887 113.335 38.0684C113.698 38.748 113.88 39.5625 113.88 40.5117C113.88 41.5547 113.651 42.5508 113.194 43.5C112.749 44.4375 112.116 45.2695 111.296 45.9961C110.487 46.7109 109.509 47.2852 108.36 47.7188C107.224 48.1406 105.964 48.3516 104.581 48.3516C103.995 48.3516 103.38 48.3105 102.735 48.2285C102.103 48.1465 101.464 48.0352 100.819 47.8945C100.175 47.7422 99.5361 47.5605 98.9033 47.3496C98.2822 47.1387 97.6904 46.9043 97.1279 46.6465L97.7256 43.5703L98.0771 43.3945C99.2725 44.0859 100.479 44.6309 101.698 45.0293C102.929 45.4277 104.095 45.627 105.196 45.627ZM118.715 19.8398H122.968V48H118.715V19.8398ZM130.949 48L124.006 38.1738L131.248 29.4199H135.554L128.242 37.6465L136.099 48H130.949ZM139.141 29.3672H143.413V48H139.141V29.3672ZM141.268 25.6934C140.893 25.6934 140.547 25.6348 140.231 25.5176C139.926 25.3887 139.657 25.2188 139.422 25.0078C139.2 24.7969 139.024 24.5449 138.895 24.252C138.778 23.959 138.719 23.6426 138.719 23.3027C138.719 22.9512 138.784 22.6289 138.913 22.3359C139.053 22.0312 139.241 21.7676 139.475 21.5449C139.721 21.3105 140.002 21.1289 140.319 21C140.647 20.8711 140.998 20.8066 141.373 20.8066C141.737 20.8066 142.071 20.8711 142.375 21C142.68 21.1289 142.944 21.3047 143.166 21.5273C143.389 21.7383 143.565 21.9961 143.694 22.3008C143.823 22.5938 143.887 22.9102 143.887 23.25C143.887 23.6016 143.817 23.9297 143.676 24.2344C143.547 24.5273 143.36 24.7852 143.114 25.0078C142.879 25.2188 142.604 25.3887 142.288 25.5176C141.971 25.6348 141.631 25.6934 141.268 25.6934ZM148.599 19.8398H152.853V48H148.599V19.8398ZM158.215 19.8398H162.469V48H158.215V19.8398ZM177.674 45.2578C177.37 45.5156 177.001 45.8262 176.567 46.1895C176.145 46.541 175.671 46.8809 175.143 47.209C174.628 47.5254 174.059 47.7949 173.438 48.0176C172.829 48.2402 172.184 48.3516 171.504 48.3516C170.813 48.3516 170.169 48.2285 169.571 47.9824C168.985 47.7246 168.469 47.373 168.024 46.9277C167.59 46.4707 167.245 45.9316 166.987 45.3105C166.741 44.6777 166.618 43.9805 166.618 43.2188C166.618 42.4219 166.776 41.6426 167.092 40.8809C167.421 40.1191 167.96 39.4395 168.71 38.8418C169.471 38.2441 170.473 37.7637 171.715 37.4004C172.958 37.0254 174.493 36.8379 176.321 36.8379H177.604V35.3965C177.604 34.8809 177.516 34.418 177.34 34.0078C177.165 33.5977 176.919 33.2461 176.602 32.9531C176.286 32.6602 175.905 32.4375 175.46 32.2852C175.026 32.1328 174.54 32.0566 174.001 32.0566C173.579 32.0566 173.128 32.1094 172.647 32.2148C172.167 32.3086 171.692 32.4434 171.223 32.6191C170.754 32.7949 170.297 33.0059 169.852 33.252C169.407 33.4863 169.008 33.7441 168.657 34.0254L168.34 33.8496L167.532 30.8965C168.95 30.1582 170.268 29.6602 171.487 29.4023C172.706 29.1445 173.848 29.0156 174.915 29.0156C176.016 29.0156 176.995 29.127 177.85 29.3496C178.717 29.5723 179.45 29.918 180.047 30.3867C180.645 30.8438 181.096 31.4297 181.401 32.1445C181.717 32.8477 181.876 33.6855 181.876 34.6582V43.2715C181.876 43.4473 181.887 43.6406 181.911 43.8516C181.946 44.0625 182.004 44.2617 182.087 44.4492C182.18 44.6367 182.309 44.7949 182.473 44.9238C182.649 45.0527 182.878 45.1172 183.159 45.1172C183.323 45.1172 183.522 45.0938 183.756 45.0469C183.991 45 184.225 44.9238 184.46 44.8184V46.9277C183.827 47.3613 183.194 47.707 182.561 47.9648C181.94 48.2227 181.331 48.3516 180.733 48.3516C180.264 48.3516 179.86 48.2637 179.52 48.0879C179.18 47.9121 178.893 47.6836 178.659 47.4023C178.424 47.1094 178.225 46.7812 178.061 46.418C177.909 46.043 177.78 45.6562 177.674 45.2578ZM177.604 38.9121H176.497C175.278 38.9121 174.294 39 173.544 39.1758C172.805 39.3398 172.231 39.5742 171.821 39.8789C171.411 40.1719 171.135 40.5176 170.995 40.916C170.866 41.3027 170.801 41.7246 170.801 42.1816C170.801 42.6621 170.872 43.084 171.012 43.4473C171.153 43.8105 171.34 44.1152 171.575 44.3613C171.821 44.6074 172.108 44.7949 172.436 44.9238C172.764 45.0527 173.116 45.1172 173.491 45.1172C173.772 45.1172 174.065 45.0879 174.37 45.0293C174.674 44.959 174.991 44.8418 175.319 44.6777C175.659 44.5137 176.016 44.2969 176.391 44.0273C176.766 43.7578 177.171 43.4121 177.604 42.9902V38.9121ZM187.536 29.3672H190.982L191.579 34.9219C191.743 34.6172 191.913 34.3066 192.089 33.9902C192.265 33.6621 192.441 33.3516 192.617 33.0586C192.792 32.7539 192.956 32.4785 193.109 32.2324C193.261 31.9863 193.39 31.7812 193.495 31.6172C193.742 31.2539 194.017 30.9141 194.322 30.5977C194.638 30.2695 194.978 29.9941 195.341 29.7715C195.704 29.5371 196.097 29.3555 196.519 29.2266C196.941 29.0859 197.398 29.0156 197.89 29.0156C198.23 29.0156 198.57 29.0566 198.909 29.1387C199.249 29.2207 199.536 29.3496 199.771 29.5254L199.314 33.4453C199.103 33.3867 198.857 33.3516 198.576 33.3398C198.294 33.3164 198.042 33.3047 197.82 33.3047C197.07 33.3047 196.402 33.416 195.816 33.6387C195.23 33.8496 194.697 34.1484 194.216 34.5352C193.747 34.9102 193.314 35.3555 192.915 35.8711C192.529 36.3867 192.154 36.9434 191.79 37.541V48H187.536V29.3672ZM215.785 46.2949C214.953 46.9629 214.027 47.4727 213.008 47.8242C211.988 48.1758 210.893 48.3516 209.721 48.3516C208.408 48.3516 207.225 48.1348 206.17 47.7012C205.115 47.2559 204.219 46.6465 203.481 45.873C202.742 45.0879 202.174 44.1562 201.775 43.0781C201.377 41.9883 201.178 40.793 201.178 39.4922C201.178 37.957 201.447 36.5508 201.986 35.2734C202.525 33.9844 203.258 32.877 204.184 31.9512C205.121 31.0254 206.223 30.3047 207.488 29.7891C208.754 29.2734 210.113 29.0156 211.566 29.0156C211.883 29.0156 212.223 29.0332 212.586 29.0684C212.949 29.0918 213.318 29.1328 213.693 29.1914C214.08 29.25 214.455 29.332 214.818 29.4375C215.193 29.5312 215.539 29.6484 215.856 29.7891L215.1 33.0586L214.731 33.2344C214.52 33.082 214.268 32.9355 213.975 32.7949C213.693 32.6426 213.389 32.5137 213.061 32.4082C212.732 32.3027 212.393 32.2207 212.041 32.1621C211.689 32.0918 211.344 32.0566 211.004 32.0566C210.254 32.0566 209.551 32.2031 208.895 32.4961C208.25 32.7891 207.682 33.2168 207.189 33.7793C206.709 34.3418 206.328 35.0332 206.047 35.8535C205.766 36.6621 205.625 37.582 205.625 38.6133C205.625 39.6914 205.777 40.6348 206.082 41.4434C206.387 42.252 206.809 42.9316 207.348 43.4824C207.887 44.0215 208.525 44.4316 209.264 44.7129C210.002 44.9824 210.805 45.1172 211.672 45.1172C212.211 45.1172 212.826 45.0527 213.518 44.9238C214.209 44.7949 214.965 44.543 215.785 44.168V46.2949Z" fill="#034EDC"/>
<rect width="80" height="74.7541" rx="12" fill="#034EDC"/>
<path d="M18.6169 38.0964C20.8772 38.0964 23.1194 38.4882 25.3797 38.3435C26.1627 38.3128 26.9324 38.1307 27.6461 37.8071C29.5749 36.8909 31.4675 35.9446 32.9804 34.3593C33.9872 33.3223 35.0604 32.3519 36.1931 31.4541C36.7476 31.0081 37.6035 30.345 38.1641 31.0864C38.6704 31.7374 37.7964 32.3341 37.3323 32.8645C35.0177 35.5227 32.7393 38.217 31.7207 41.6888C31.2445 43.3102 31.2987 45.022 31.1541 46.6977C30.7864 50.9591 30.702 55.2447 29.7436 59.4338C29.6411 59.9032 29.4875 60.36 29.2855 60.796C29.1168 61.1637 28.8938 61.5253 28.4236 61.459C27.9535 61.3927 27.9354 60.9226 27.9173 60.5428C27.851 58.825 27.7967 57.1132 27.7244 55.3954C27.6521 53.6775 27.5737 51.7789 27.4954 49.9706C27.4954 49.8802 27.4954 49.7898 27.4954 49.6994C27.423 49.0966 27.5255 48.2588 26.76 48.1202C25.9945 47.9815 25.8679 48.8073 25.6329 49.3257C24.8131 51.0977 24.1139 52.9422 23.1435 54.6359C23.0014 54.8998 22.8381 55.1518 22.6553 55.3893C22.4684 55.6184 22.2514 55.8896 21.9079 55.7811C21.7524 55.7189 21.6208 55.6089 21.5319 55.467C21.4431 55.325 21.4016 55.1585 21.4136 54.9915C21.3571 53.97 21.4962 52.9471 21.8235 51.9778C22.7457 49.0544 23.7402 46.1492 24.5238 43.1836C24.5992 43.0179 24.6343 42.8367 24.6261 42.6549C24.6179 42.473 24.5667 42.2957 24.4767 42.1374C24.3867 41.9792 24.2605 41.8446 24.1084 41.7446C23.9562 41.6446 23.7826 41.5821 23.6016 41.5622C21.6306 41.0258 19.6596 40.4833 17.6826 39.9529C16.9801 39.7917 16.294 39.5657 15.6332 39.2778C15.3319 39.1271 15.0305 38.9885 15.0908 38.5545C15.151 38.1205 15.5247 38.0904 15.8442 38.018C16.0443 37.9928 16.2468 37.9928 16.447 38.018L18.6169 38.0964Z" fill="white"/>
<path d="M50.2736 59.8378C50.0385 58.4756 49.7853 57.1194 49.5804 55.7571C49.1585 52.8941 49.1404 49.9948 48.827 47.1197C48.6039 45.0704 48.827 42.9487 48.0133 40.9777C47.3558 39.2361 46.4282 37.6088 45.2647 36.1557C44.1858 34.8658 43.2515 33.4554 42.1003 32.2197C41.817 31.9244 41.383 31.4904 41.7808 31.0142C42.1786 30.5381 42.6849 30.8213 43.1189 31.0142C43.6359 31.2607 44.11 31.5883 44.5233 31.9847C45.5661 32.9852 46.5486 34.0641 47.6697 34.9683C50.2133 37.0116 52.9377 38.627 56.4156 38.3316C58.5734 38.1448 60.7433 38.0845 62.9072 37.97C63.2026 37.97 63.51 37.97 63.8053 37.97C64.2393 37.97 64.7095 38.0122 64.8782 38.4642C65.1073 39.067 64.4503 39.067 64.1971 39.3623L61.6716 40.1097C59.8633 40.5075 58.0551 41.0139 56.289 41.5563C56.1173 41.5818 55.9538 41.6469 55.8114 41.7463C55.6691 41.8458 55.5518 41.977 55.4688 42.1295C55.3858 42.2821 55.3394 42.4518 55.3332 42.6253C55.327 42.7988 55.3612 42.9715 55.4331 43.1295C56.2046 46.0348 57.1811 48.8737 58.0671 51.7368C58.3901 52.6748 58.5689 53.6564 58.5976 54.6481C58.5976 55.1122 58.5976 55.6245 58.037 55.7451C57.4764 55.8656 57.3258 55.3895 57.0967 55.0519C56.8677 54.7144 56.6929 54.3829 56.494 54.0514C56.4935 53.9744 56.4747 53.8987 56.439 53.8306C56.4034 53.7624 56.352 53.7038 56.289 53.6596C55.7465 52.4239 55.2101 51.1823 54.6616 49.9527C54.4446 49.4584 54.2216 48.9702 53.9745 48.488C53.9155 48.3474 53.8125 48.2297 53.6811 48.1526C53.5496 48.0754 53.3966 48.0429 53.2451 48.06C53.0938 48.0837 52.9538 48.1548 52.8455 48.2632C52.7372 48.3715 52.6661 48.5114 52.6424 48.6628C52.5556 48.8882 52.4949 49.1228 52.4616 49.362C52.341 52.0623 52.2285 54.7646 52.124 57.469V58.3791L52.0396 58.9156C51.3344 59.1145 51.0752 59.8739 50.4544 60.1874L50.2736 59.8378Z" fill="white"/>
<circle cx="26.5875" cy="33.4137" r="3.01375" fill="#FAFAFC"/>
<circle cx="53.1085" cy="33.4137" r="3.01375" fill="#FAFAFC"/>
<path d="M34.1161 18.3935C33.495 18.8559 33.0064 19.4736 32.6996 20.1846C32.3927 20.8956 32.2784 21.6748 32.3682 22.444C30.4454 19.6593 31.5966 15.5606 34.8394 13.4329C36.9792 16.091 37.0575 19.6773 34.8937 22.8358C35.1957 21.3098 34.9185 19.7261 34.1161 18.3935Z" fill="#FFF1A1"/>
<path d="M41.5117 13.1147C42.8559 14.712 44.0011 16.2852 43.9891 18.431C43.9582 19.3065 43.6524 20.1501 43.1151 20.842C42.7112 21.4448 42.2893 21.4448 41.7589 21.0229C41.2947 20.6624 40.9127 20.2072 40.6383 19.6875C40.3639 19.1679 40.2035 18.5957 40.1676 18.0091C40.0014 16.2681 40.4796 14.5266 41.5117 13.1147Z" fill="#C0FACF"/>
<path d="M48.6801 22.047C47.4746 21.4443 46.9682 20.2689 46.7211 19.0333C46.4832 17.5946 46.7403 16.1178 47.4504 14.8441C47.6132 14.5187 47.7578 14.4403 48.1255 14.6392C50.3195 15.8447 51.7059 19.196 50.9343 21.6552C50.7138 20.5643 50.1268 19.5817 49.2707 18.8705C48.897 18.539 48.7765 18.6234 48.6017 19.0574C48.2759 20.0388 48.2951 21.1021 48.6559 22.0711L48.6801 22.047Z" fill="#FFF1A1"/>
<path d="M25.1052 27.3156C24.6358 26.381 23.8995 25.6069 22.9896 25.0914C22.4953 24.8322 22.3507 24.9949 22.3085 25.4711C22.2565 26.0711 22.3495 26.6747 22.5797 27.2312C22.6882 27.4964 22.9414 27.7315 22.8088 28.069C21.726 27.4606 20.8914 26.4911 20.4507 25.3299C20.01 24.1687 19.9913 22.8896 20.3978 21.716C20.5665 21.2278 20.7715 21.3302 21.1211 21.4508C23.4417 22.2705 24.9365 24.4284 25.1052 27.3156Z" fill="#72E881"/>
<path d="M29.1663 21.1242C29.1655 21.9127 28.893 22.6769 28.3947 23.2881C28.339 23.3935 28.2587 23.4839 28.1606 23.5517C28.0625 23.6194 27.9495 23.6625 27.8312 23.6773C27.7129 23.6921 27.5928 23.6781 27.481 23.6366C27.3693 23.5951 27.2692 23.5272 27.1892 23.4387C26.4125 22.8038 25.9131 21.8916 25.7969 20.8951C25.6508 19.5114 25.9689 18.1183 26.701 16.9351C26.8637 16.6156 27.0506 16.5493 27.3038 16.8567C28.3043 18.1104 29.1602 19.4305 29.1663 21.1242Z" fill="#C0FACF"/>
<path d="M56.9965 20.2929C57.6414 20.082 57.4305 20.7752 57.6957 20.968C57.6538 21.2797 57.713 21.5966 57.8644 21.8722C57.8644 22.5653 57.9307 23.2585 57.8644 23.9456C57.8289 24.5382 57.6446 25.1123 57.3286 25.6148C57.0125 26.1173 56.5749 26.5321 56.0562 26.8207C55.2907 27.2728 54.9712 27.1824 54.6216 26.3325C54.3475 25.6602 54.2534 24.928 54.3485 24.2082C54.4436 23.4884 54.7248 22.8058 55.1641 22.2278C55.5977 21.6547 56.0689 21.111 56.5746 20.6003L56.9965 20.2929Z" fill="#72E881"/>
<path d="M33.3631 28.4316C33.2667 27.3286 33.8996 26.5571 34.641 25.9061C35.5655 25.1193 36.7486 24.7028 37.9621 24.7368C38.2936 24.7368 38.5167 24.7368 38.4925 25.213C38.3854 26.2741 37.9648 27.2794 37.2842 28.1006C36.6036 28.9218 35.6939 29.5217 34.6711 29.824C35.1974 29.203 35.5912 28.481 35.8284 27.7023C35.9248 27.2864 35.8706 27.0996 35.3643 27.1779C34.5574 27.3226 33.8368 27.7713 33.3511 28.4316H33.3631Z" fill="#C0FACF"/>
<path d="M58.43 33.2713C58.5566 31.6379 60.0092 30.2576 61.9862 29.8417C63.6076 29.5162 63.8367 29.7452 63.3123 31.3184C63.0827 32.1326 62.6488 32.8746 62.0517 33.4738C61.4546 34.0731 60.7141 34.5096 59.9007 34.742L59.8585 34.7059C60.2803 34.1622 60.6064 33.5507 60.8229 32.8976C60.8712 32.6746 61.0761 32.4275 60.8591 32.2346C60.6421 32.0417 60.407 32.2045 60.178 32.2346C59.4728 32.3612 59.0026 32.8976 58.418 33.2412L58.43 33.2713Z" fill="#00CCFF"/>
<path d="M21.0598 32.2689C21.1622 32.9621 20.6439 33.0224 20.1436 32.9802C19.464 32.9181 18.8158 32.6649 18.274 32.25C17.7321 31.8351 17.3188 31.2754 17.0816 30.6355C16.8405 30.1292 16.3824 29.43 16.6838 29.0563C17.0696 28.6102 17.8049 29.0563 18.3594 29.225C20.1014 29.7856 21.0718 30.8826 21.0598 32.2689Z" fill="#00CCFF"/>
<path d="M50.1533 30.1075C48.3029 28.2992 48.8454 26.1112 49.7133 24.749C49.9846 24.3211 50.1955 24.5923 50.4125 24.7852C51.9315 26.1354 52.3413 27.7989 51.8531 29.8905C51.6908 29.1781 51.3716 28.511 50.9188 27.9376C50.5753 27.5458 50.3583 27.5759 50.1774 28.0642C49.9528 28.7255 49.9444 29.4411 50.1533 30.1075Z" fill="#C0FACF"/>
<path d="M45.5941 26.7564C45.5941 27.6304 45.3108 27.8474 44.485 27.5762C43.84 27.2785 43.2989 26.7944 42.9314 26.1863C42.564 25.5783 42.3872 24.8741 42.4236 24.1646C42.4236 23.9536 42.508 23.8512 42.7551 23.8572C43.9305 23.8813 45.57 25.5449 45.5941 26.7564Z" fill="#FA5E48"/>
<path d="M57.0398 30.5566C56.5757 30.6108 56.2924 30.43 56.3225 29.8574C56.4009 28.5193 58.3839 26.922 59.71 27.145C59.8727 27.1752 59.9691 27.2113 59.9872 27.4102C60.0957 28.67 58.3839 30.5385 57.0398 30.5566Z" fill="#FA5E48"/>
<path d="M42.9608 44.5705C42.9608 45.9086 42.9608 45.9086 41.2912 45.9086C40.1881 45.9086 40.1881 45.9086 40.1942 44.2812C40.1942 43.154 40.1942 43.1541 41.9 43.1541C42.9608 43.1541 42.9608 43.154 42.9608 44.5705Z" fill="#72E881"/>
<path d="M28.6651 25.4102C29.5451 26.4951 30.2745 27.4836 30.0755 28.8398C29.9912 29.4426 29.8164 30.1056 29.2076 30.1719C28.5988 30.2382 28.3035 29.6294 28.1046 29.1231C27.5922 27.8332 27.9237 26.6579 28.6651 25.4102Z" fill="#E9E9E9"/>
<path d="M42.9465 47.6442C42.9465 48.9943 42.9465 48.9943 41.3793 48.9943C40.1738 48.9943 40.1738 48.9943 40.1738 47.3488C40.1738 46.2578 40.1738 46.2458 41.8254 46.2639C43.1153 46.2759 42.9284 46.0529 42.9465 47.6442Z" fill="#FFF1A1"/>
<path d="M39.8449 47.6464C39.8449 48.9966 39.8449 48.9966 38.2778 48.9966C37.0723 48.9966 37.0723 48.9966 37.0723 47.345C37.0723 46.254 37.0723 46.2541 38.7298 46.2601C39.8449 46.2601 39.8449 46.2601 39.8449 47.6464Z" fill="#FA5E48"/>
<path d="M39.8426 44.5905C39.8426 45.9105 39.8426 45.9105 38.2393 45.9105C37.1001 45.9105 37.1001 45.9105 37.1001 44.3193C37.1001 43.162 37.1001 43.156 38.6914 43.168C40.0355 43.1801 39.8004 42.9872 39.8426 44.5905Z" fill="#00CCFF"/>
<path d="M15.0928 35.1214C15.9788 34.6814 16.7986 34.4343 17.6243 35.031C18.1005 35.3686 18.0824 35.688 17.5219 35.9472C16.7624 36.3028 15.9788 36.0617 15.0928 35.1214Z" fill="#FA5E48"/>
<path d="M50.4297 60.3879L50.4659 60.2071C51.0686 59.8937 51.3459 59.1342 52.0511 58.9353C52.0511 59.4356 52.0812 59.9419 52.0511 60.4482C52.0511 60.8581 52.0993 61.3463 51.5629 61.4668C51.0264 61.5874 50.8938 61.1715 50.6768 60.8641C50.5985 60.7014 50.5201 60.5446 50.4297 60.3879Z" fill="white"/>
<path d="M64.8649 35.862C64.5418 36.1679 64.1445 36.3844 63.7122 36.4901C63.2799 36.5958 62.8275 36.5871 62.3997 36.4647C61.9597 36.2658 61.9898 36.0549 62.3032 35.7655C62.8578 35.2713 63.8523 35.2833 64.8649 35.862Z" fill="#FA5E48"/>
</svg>
