<svg width="1386" height="306" viewBox="0 0 1386 306" fill="none" xmlns="http://www.w3.org/2000/svg">
<rect width="1386" height="306" fill="#C5F3FF"/>
<path d="M872.859 272.402H512.582C523.857 189.037 600.201 124.554 692.721 124.554C785.234 124.554 861.584 189.037 872.859 272.402Z" fill="#F6F5F5"/>
<path d="M825.896 271.669H690.384C684.076 271.669 678.961 266.551 678.961 260.237V65.7136C678.961 59.4 684.075 54.2817 690.384 54.2817H825.896C832.205 54.2817 837.32 59.3999 837.32 65.7136V260.237C837.32 266.551 832.205 271.669 825.896 271.669Z" fill="#A9BAE6"/>
<path d="M823.615 63.0425H693.274V252.517H823.615V63.0425Z" fill="#F6F5F5"/>
<path d="M823.615 63.0435C823.655 136.928 826.039 226.037 817.746 245.766C781.217 249.328 738.445 250.471 693.272 250.684L710.443 63.6146L823.615 63.0435Z" fill="#E4E4E4"/>
<path d="M811.908 239.796C754.972 248.915 716.919 249.396 686.056 247.102C690.056 204.497 691.659 133.718 693.272 63.0522L761.88 63.2047L823.974 67.3063C824.879 140.65 824.978 208.398 811.908 239.796Z" fill="white"/>
<path d="M791.785 82.1198L723.219 80.5068L722.974 90.9584L791.539 92.5714L791.785 82.1198Z" fill="#708CD5"/>
<path d="M805.004 107.696L743.158 106.241L743.045 111.025L804.891 112.479L805.004 107.696Z" fill="#708CD5"/>
<path d="M784.951 117.66L742.913 116.671L742.8 121.455L784.838 122.444L784.951 117.66Z" fill="#D3DFFF"/>
<path d="M723.67 106.064L709.029 105.719L708.684 120.371L723.326 120.716L723.67 106.064Z" fill="white" stroke="#708CD5" stroke-width="6" stroke-miterlimit="10"/>
<path d="M711.418 109.584C711.87 111.316 712.705 118.571 716.335 116.542C717.172 116.074 717.881 114.838 718.507 114.126C719.633 112.847 720.758 111.568 721.884 110.289C724.135 107.731 726.387 105.173 728.638 102.615C729.215 101.96 726.668 100.315 725.943 101.138C723.942 103.412 721.941 105.686 719.94 107.96C718.939 109.097 717.938 110.233 716.938 111.37C716.243 112.159 714.638 114.704 713.607 114.93C714.167 115.111 714.728 115.292 715.288 115.473C715.684 115.798 714.948 113.494 714.932 113.431C714.653 112.361 714.373 111.291 714.094 110.221C713.863 109.337 711.076 108.275 711.418 109.584Z" fill="#EE6F57"/>
<path d="M793.462 134.076L742.532 132.878L742.42 137.662L793.349 138.86L793.462 134.076Z" fill="#708CD5"/>
<path d="M804.134 144.764L742.288 143.309L742.175 148.093L804.021 149.548L804.134 144.764Z" fill="#D3DFFF"/>
<path d="M723.044 132.701L708.403 132.357L708.059 147.009L722.7 147.353L723.044 132.701Z" fill="white" stroke="#708CD5" stroke-width="6" stroke-miterlimit="10"/>
<path d="M710.782 136.636C711.234 138.368 712.069 145.623 715.699 143.594C716.536 143.126 717.245 141.889 717.871 141.178C718.997 139.899 720.122 138.62 721.248 137.341C723.5 134.783 725.751 132.225 728.002 129.667C728.579 129.011 726.032 127.367 725.307 128.19C723.306 130.464 721.305 132.738 719.303 135.011C718.303 136.148 717.302 137.285 716.302 138.422C715.607 139.211 714.001 141.756 712.971 141.982C713.531 142.163 714.092 142.344 714.652 142.525C715.048 142.85 714.312 140.545 714.296 140.483C714.017 139.413 713.737 138.343 713.458 137.273C713.227 136.389 710.44 135.326 710.782 136.636Z" fill="#EE6F57"/>
<path d="M803.752 160.971L741.906 159.516L741.793 164.3L803.639 165.755L803.752 160.971Z" fill="#708CD5"/>
<path d="M769.319 170.598L741.661 169.947L741.549 174.731L769.207 175.382L769.319 170.598Z" fill="#D3DFFF"/>
<path d="M722.418 159.34L707.777 158.995L707.433 173.647L722.074 173.991L722.418 159.34Z" fill="white" stroke="#708CD5" stroke-width="6" stroke-miterlimit="10"/>
<path d="M710.354 163.464C710.806 165.196 711.641 172.45 715.271 170.422C716.108 169.954 716.817 168.717 717.443 168.006C718.569 166.727 719.694 165.448 720.82 164.169C723.072 161.611 725.323 159.053 727.574 156.494C728.151 155.839 725.604 154.195 724.879 155.018C722.878 157.291 720.877 159.565 718.876 161.839C717.875 162.976 716.874 164.113 715.874 165.25C715.179 166.039 713.574 168.584 712.543 168.809C713.103 168.99 713.664 169.171 714.224 169.352C714.62 169.678 713.884 167.373 713.868 167.31C713.589 166.24 713.309 165.17 713.03 164.1C712.799 163.217 710.012 162.154 710.354 163.464Z" fill="#EE6F57"/>
<path d="M803.126 187.609L741.28 186.154L741.168 190.938L803.014 192.393L803.126 187.609Z" fill="#708CD5"/>
<path d="M789.891 197.734L741.035 196.585L740.923 201.369L789.779 202.518L789.891 197.734Z" fill="#D3DFFF"/>
<path d="M721.793 185.977L707.152 185.633L706.807 200.285L721.449 200.629L721.793 185.977Z" fill="white" stroke="#708CD5" stroke-width="6" stroke-miterlimit="10"/>
<path d="M709.731 189.927C710.183 191.659 711.018 198.914 714.648 196.885C715.486 196.417 716.195 195.181 716.821 194.469C717.946 193.19 719.072 191.911 720.198 190.632C722.449 188.074 724.701 185.516 726.952 182.958C727.529 182.302 724.981 180.658 724.257 181.481C722.256 183.755 720.254 186.029 718.253 188.302C717.253 189.439 716.252 190.576 715.251 191.713C714.557 192.502 712.951 195.047 711.921 195.273C712.481 195.454 713.041 195.635 713.602 195.816C713.998 196.141 713.262 193.836 713.246 193.774C712.966 192.704 712.687 191.634 712.408 190.564C712.177 189.68 709.39 188.617 709.731 189.927Z" fill="#EE6F57"/>
<path d="M765.175 213.167L740.659 212.59L740.547 217.374L765.062 217.951L765.175 213.167Z" fill="#708CD5"/>
<path d="M802.262 224.491L740.414 223.034L740.302 227.818C764.23 228.38 794.697 229.502 800.913 228.547C801.857 227.474 802.366 226.155 802.262 224.491Z" fill="#D3DFFF"/>
<path d="M721.376 212.418L706.735 212.074L706.391 226.726L721.032 227.07L721.376 212.418Z" fill="white" stroke="#708CD5" stroke-width="6" stroke-miterlimit="10"/>
<path d="M709.114 216.159C709.566 217.891 710.401 225.145 714.031 223.117C714.868 222.649 715.577 221.412 716.203 220.701C717.329 219.422 718.455 218.143 719.581 216.864C721.832 214.306 724.084 211.748 726.335 209.19C726.912 208.534 724.364 206.89 723.64 207.713C721.639 209.987 719.637 212.261 717.636 214.534C716.636 215.671 715.635 216.808 714.634 217.945C713.94 218.734 712.334 221.279 711.304 221.505C711.864 221.686 712.424 221.867 712.984 222.048C713.38 222.373 712.645 220.068 712.628 220.006C712.349 218.936 712.07 217.866 711.791 216.796C711.56 215.912 708.772 214.849 709.114 216.159Z" fill="#EE6F57"/>
<path d="M787.495 55.5976V70.2218H728.783V55.5976C728.783 53.2659 729.73 51.1556 731.254 49.6237C731.445 49.433 731.642 49.2545 731.851 49.0884C733.308 47.8764 735.183 47.1504 737.224 47.1504C738.755 47.1504 740.224 46.7998 741.54 46.1661C742.112 45.8892 742.653 45.5631 743.163 45.1878C744.841 43.9451 746.126 42.1793 746.766 40.0752C747.417 37.928 748.751 36.1316 750.479 34.8826C752.139 33.6891 754.161 33 756.307 33H759.971C762.117 33 764.139 33.6891 765.799 34.8826C767.527 36.1316 768.861 37.928 769.513 40.0752C770.152 42.1793 771.437 43.9451 773.115 45.1878C773.626 45.5631 774.167 45.8892 774.738 46.1661C776.054 46.7998 777.523 47.1504 779.054 47.1504C781.095 47.1504 782.97 47.8764 784.427 49.0884C786.303 50.6327 787.495 52.9767 787.495 55.5976Z" fill="#FA5E48"/>
<path d="M792.26 63.0425V73.9137H724.018V63.0425H728.783V70.2223H787.495V63.0425H792.26Z" fill="#E4E4E4"/>
<path d="M758.14 46.7192C761.016 46.7192 763.348 44.5016 763.348 41.7661C763.348 39.0306 761.016 36.813 758.14 36.813C755.264 36.813 752.932 39.0306 752.932 41.7661C752.932 44.5016 755.264 46.7192 758.14 46.7192Z" fill="white"/>
<path d="M645.622 110.232C643.539 109.838 641.593 106.356 640.916 105.021C640.75 104.693 640.699 104.323 640.767 103.962L641.595 99.5657C641.595 99.5657 643.508 99.891 643.36 102.439C643.345 102.704 643.399 102.968 643.493 103.215L644.225 105.132L646.39 103.455L645.203 100.102C645.203 100.102 643.614 100.538 642.794 100.276C641.11 99.7384 643.318 98.4248 644.016 98.2851C644.714 98.1453 646.25 97.5863 646.948 98.7742C647.646 99.9619 648.065 100.661 648.065 100.661C648.065 100.661 648.833 98.0056 648.31 92.0667C648.286 91.7996 648.955 91.8053 649.143 91.9966C649.705 92.5691 650.601 94.3122 650.649 99.6126C650.649 99.6126 650.742 93.4358 651.801 92.8004C652.673 92.2764 653.114 95.2995 652.499 100.427C652.499 100.427 653.639 95.9873 654.454 95.9795C655.829 95.9661 654.472 107.835 651.014 111.373L645.622 110.232Z" fill="#F9B384"/>
<path d="M652.151 108.416C652.089 109.007 652.022 109.579 651.948 110.133V110.139C651.702 112.107 651.395 113.867 651.038 115.374C651.02 115.448 651.007 115.516 650.989 115.584C649.938 119.896 649.747 122.007 646.157 121.441L642.462 117.232L642.425 117.189L642.154 116.882L642.904 114.667L643.003 114.378L643.556 112.766L643.624 112.557L644.57 109.782L644.952 108.656L652.151 108.416Z" fill="#F9B384"/>
<path d="M583.507 261.65L582.567 264.592C576.118 266.712 572.356 269.141 572.115 271.975H590.764L592.259 262.126C588.482 263.048 585.455 262.406 583.507 261.65Z" fill="#1F3C88"/>
<path d="M585.846 254.338L583.508 261.65C585.455 262.406 588.482 263.048 592.259 262.126L593.223 255.773L585.846 254.338Z" fill="#F9B384"/>
<path d="M617.729 261.324L618.276 253.876L609.515 254.338L609.036 261.204C612.746 262.387 615.811 261.924 617.729 261.324Z" fill="#F9B384"/>
<path d="M628.266 271.975C628.025 269.141 624.731 265.258 617.507 264.335L617.729 261.324C615.811 261.924 612.746 262.387 609.036 261.204L608.285 271.975H628.266Z" fill="#1F3C88"/>
<path d="M610.628 112.144L600.06 112.218V96.2222H610.308L610.314 97.2004L610.364 102.27L610.437 110.41L610.628 112.144Z" fill="#F9B384"/>
<path d="M610.364 103.039C608.464 105.038 603.509 102.78 601.418 100.578L610.314 97.9692L610.364 103.039Z" fill="#E28B6D"/>
<path d="M612.817 92.5309C612.811 93.7122 612.737 94.9488 612.54 96.13C612.024 99.3539 610.659 102.141 607.511 102.227C600.072 102.442 597.951 98.1849 596.549 94.7027C595.148 91.2143 597.422 82.8286 597.422 82.8286L607.05 81.875L612.337 86.2124C612.337 86.2124 612.847 89.1594 612.817 92.5309Z" fill="#F9B384"/>
<path d="M596.849 92.7082C596.849 92.7082 598.972 92.6102 599.334 87.1283C603.129 88.3993 605.902 87.2405 608.099 84.7114C609.974 87.1894 615.223 87.9654 616.995 82.892C618.276 79.2262 614.741 73.766 609.592 77.0729C604.546 74.5218 596.892 74.6967 594.69 80.9549C594.69 80.9549 587.033 84.4876 595.14 92.266C595.303 92.422 596.849 92.7082 596.849 92.7082Z" fill="#102048"/>
<path d="M626.115 169.635L620.274 258.029H606.543L609.976 172.255L612.077 171.281L626.115 169.635Z" fill="#102048"/>
<path d="M590.354 157.541L580.722 258.029H595.682L609.925 174.562L626.114 169.64L626.831 151.798L590.764 150.978L590.354 157.541Z" fill="#1F3C88"/>
<path opacity="0.6" d="M592.502 157.76C600.673 160.696 619.844 157.341 623.825 153.252L620.996 147.591L589.464 151.785L592.502 157.76Z" fill="#102048"/>
<path d="M623.09 151.889C622.825 151.999 622.555 152.116 622.278 152.221C619.223 153.464 615.743 154.553 612.036 155.273C609.823 155.709 607.517 156.005 605.169 156.115C601.627 156.294 597.988 156.06 594.385 155.242L598.965 112.507L599.525 107.296C599.525 107.296 605.519 114.679 612.128 106.527L623.09 151.889Z" fill="white"/>
<path opacity="0.3" d="M605.169 156.115C601.627 156.294 597.988 156.06 594.385 155.242L598.965 112.507L600.601 110.142C604.64 119.973 608.777 141.743 605.169 156.115Z" fill="#1F3C88"/>
<path d="M600.063 105.604C604.616 124.954 606.49 144.865 599.781 166.974C594.805 168.868 589.388 168.847 583.591 167.179L585.026 126.984L551.264 150.209L549.214 137.546C562.193 125.127 584.632 106.366 600.063 105.604Z" fill="#034EDC"/>
<path opacity="0.3" d="M622.278 152.221C619.223 153.464 615.743 154.553 612.036 155.273C610.001 143.595 609.552 124.412 611.206 115.756L622.278 152.221Z" fill="#1F3C88"/>
<path opacity="0.6" d="M651.038 115.374C651.02 115.448 651.007 115.516 650.989 115.584C649.938 119.896 649.747 122.007 646.157 121.441L642.462 117.232L642.425 117.189L642.904 114.667L643.003 114.378L643.556 112.766L643.624 112.557L651.038 115.374Z" fill="#E28B6D"/>
<path d="M650.399 119.293C650.399 119.293 641.33 138.519 635.951 138.981C630.736 139.428 628.266 134.367 628.266 134.367L631.955 162.464C627.621 164.495 622.893 165.485 617.403 164.513C612.528 148.671 610.685 128.187 610.322 105.374C614.269 105.62 622.086 105.957 624.885 107.758C629.906 110.988 636.105 122.523 636.105 122.523L643.328 112.679L650.399 119.293Z" fill="#034EDC"/>
<path d="M539.851 92.2036C539.851 92.2036 540.4 83.0061 541.335 83.4402C542.27 83.8742 544.147 91.8717 544.147 91.8717L542.141 95.1111L539.851 92.2036Z" fill="#6F3428"/>
<path d="M567.448 258.286L567.72 261.313C568.199 266.656 564.259 271.378 558.92 271.858L558.142 271.928C552.803 272.408 548.085 268.465 547.605 263.121L547.333 260.094L567.448 258.286Z" fill="#EE6F57"/>
<path d="M554.292 111.711L534.177 113.52L547.339 260.096L567.454 258.287L554.292 111.711Z" fill="#FBC343"/>
<path opacity="0.3" d="M547.541 109.356L540.397 109.998L551.934 238.477L559.077 237.834L547.541 109.356Z" stroke="#6F3428" stroke-width="8" stroke-miterlimit="10"/>
<path d="M567.445 258.288L547.336 260.097L546.807 254.19L546.438 250.087L545.301 237.474L565.417 235.666L566.548 248.278L566.917 252.382L567.445 258.288Z" fill="#102048"/>
<path d="M566.544 248.284L546.434 250.092L546.803 254.196L566.913 252.388L566.544 248.284Z" fill="#FBC343"/>
<path d="M534.172 113.52L539.759 91.1115C539.759 91.1115 541.688 91.9676 544.027 90.522L554.288 111.712L534.172 113.52Z" fill="#EE6F57"/>
<path d="M597.962 91.7804C597.872 91.4498 596.371 90.9955 596.04 90.904C595.529 90.7626 594.971 90.6931 594.472 90.9186C592.657 91.7393 592.899 94.3408 593.84 95.7079C594.373 96.4825 595.153 97.0783 596.06 97.3384C596.39 97.4329 599.513 97.4702 599.376 96.9679C599.375 96.9657 597.965 91.7916 597.962 91.7804Z" fill="#F9B384"/>
<path d="M540.813 144.057C540.341 142.575 538.789 141.743 537.319 142.251C535.031 143.041 533.038 144.383 532.729 146.665C532.448 148.743 533.487 155.381 538.126 156.234L537.747 152.823C537.747 152.823 540.587 152.16 541.155 150.928C541.553 150.066 541.579 146.465 540.813 144.057Z" fill="#F9B384"/>
<path d="M626.849 121.228C627.093 122.68 627.3 124.137 627.499 125.595C627.706 127.052 627.869 128.514 628.056 129.973L628.533 134.361C628.672 135.826 628.808 137.291 628.898 138.762L628.659 138.79C628.408 137.338 628.202 135.881 628 134.423L627.452 130.044C627.297 128.581 627.119 127.121 626.984 125.655C626.842 124.191 626.708 122.725 626.61 121.256L626.849 121.228Z" fill="#1F3C88"/>
<path d="M585.505 120.991C585.502 122.623 585.462 124.252 585.414 125.881C585.372 127.511 585.288 129.138 585.228 130.767L584.961 135.649C584.853 137.275 584.741 138.901 584.583 140.525L584.343 140.514C584.338 138.882 584.38 137.253 584.425 135.623L584.62 130.738C584.713 129.111 584.782 127.483 584.895 125.857C585 124.23 585.114 122.604 585.265 120.98L585.505 120.991Z" fill="#1F3C88"/>
<path d="M605.423 91.6278C605.553 92.208 605.314 92.7555 604.89 92.8507C604.465 92.946 604.016 92.5527 603.886 91.9725C603.756 91.3923 603.995 90.8448 604.419 90.7496C604.844 90.6544 605.293 91.0476 605.423 91.6278Z" fill="#102048"/>
<path d="M611.551 90.9109C611.526 91.5051 611.153 91.9717 610.718 91.9533C610.284 91.9348 609.952 91.4383 609.977 90.8442C610.002 90.25 610.375 89.7833 610.81 89.8018C611.244 89.8203 611.576 90.3168 611.551 90.9109Z" fill="#102048"/>
<path d="M608.134 91.3979C608.345 91.9063 608.311 92.4545 608.447 92.8713C608.517 93.082 608.613 93.2673 608.745 93.3827C608.868 93.4951 609.068 93.5683 609.322 93.6666C609.583 93.7678 609.861 93.9481 610.05 94.2157C610.251 94.4761 610.307 94.9274 610.125 95.2226C609.961 95.5182 609.726 95.6803 609.524 95.8306C609.313 95.9728 609.11 96.1243 608.891 96.2574L608.733 96.0762C608.894 95.877 609.072 95.6963 609.241 95.5063C609.416 95.3264 609.577 95.1506 609.638 94.9883C609.769 94.7036 609.49 94.3925 609.087 94.2316C608.879 94.1367 608.579 94.0532 608.337 93.8058C608.104 93.5677 607.989 93.2701 607.943 92.9923C607.841 92.4223 607.957 91.9347 607.902 91.4607L608.134 91.3979Z" fill="#E28B6D"/>
<path d="M602.49 90.0701C602.581 89.705 602.803 89.36 603.118 89.1109C603.427 88.8536 603.831 88.7143 604.232 88.6935C605.039 88.6446 605.838 89.1042 606.17 89.7834L605.982 89.9329C605.448 89.5136 604.86 89.2832 604.262 89.305C603.661 89.321 603.116 89.6302 602.708 90.1718L602.49 90.0701Z" fill="#102048"/>
<path d="M608.835 89.3168C608.926 89.032 609.086 88.7619 609.318 88.5396C609.545 88.3115 609.862 88.1614 610.191 88.1074C610.851 87.9981 611.561 88.3343 611.821 88.9212L611.629 89.0655C611.196 88.7751 610.725 88.6519 610.281 88.713C610.059 88.7428 609.847 88.8263 609.639 88.948C609.434 89.076 609.247 89.2508 609.042 89.4391L608.835 89.3168Z" fill="#102048"/>
<path d="M605.434 97.356C606.508 99.0372 607.938 99.2201 609.042 97.4504L605.434 97.356Z" fill="white"/>
<path opacity="0.4" d="M612.845 92.1206C612.839 93.3019 612.736 94.9487 612.54 96.13C611.796 95.89 611.255 95.1948 611.255 94.3642C611.255 93.4352 611.966 92.2621 612.845 92.1206Z" fill="#FC8879"/>
<path opacity="0.4" d="M602.814 97.4475C603.909 97.4475 604.796 96.5592 604.796 95.4635C604.796 94.3678 603.909 93.4795 602.814 93.4795C601.719 93.4795 600.831 94.3678 600.831 95.4635C600.831 96.5592 601.719 97.4475 602.814 97.4475Z" fill="#FC8879"/>
<path d="M596.662 93.7572C596.271 93.4911 595.911 93.1996 595.554 93.0269C595.377 92.9397 595.212 92.8872 595.065 92.8999C594.916 92.9105 594.745 92.9977 594.553 93.1346L594.352 93.004C594.435 92.7585 594.612 92.4826 594.936 92.3754C595.257 92.2639 595.584 92.3537 595.825 92.4783C596.315 92.7457 596.65 93.1403 596.854 93.6118L596.662 93.7572Z" fill="#E28B6D"/>
<path opacity="0.6" d="M541.155 150.928L538.302 159.604L537.712 152.824C539.486 152.437 540.454 151.727 541.155 150.928Z" fill="#6F3428"/>
<path d="M494 272.031H891.44" stroke="#034EDC" stroke-width="2" stroke-miterlimit="10"/>
</svg>
